<mxfile host="app.diagrams.net" modified="2021-06-13T19:08:51.947Z" agent="5.0 (Windows NT 10.0; Win64; x64) AppleWebKit/537.36 (KHTML, like Gecko) Chrome/91.0.4472.101 Safari/537.36" etag="iT71S5IGe5DcWZQg2sOI" version="14.7.6" type="github">
  <diagram id="hv0O0bQGqx6V-EesGvCn" name="Page-1">
    <mxGraphModel dx="1730" dy="982" grid="1" gridSize="10" guides="1" tooltips="1" connect="1" arrows="1" fold="1" page="1" pageScale="1" pageWidth="850" pageHeight="1100" math="0" shadow="0">
      <root>
        <mxCell id="0" />
        <mxCell id="1" parent="0" />
        <mxCell id="ycUvaEFtshFAvuI_ldmJ-15" style="edgeStyle=orthogonalEdgeStyle;rounded=0;orthogonalLoop=1;jettySize=auto;html=1;entryX=0.415;entryY=-0.022;entryDx=0;entryDy=0;entryPerimeter=0;fontSize=12;" edge="1" parent="1" source="ycUvaEFtshFAvuI_ldmJ-1">
          <mxGeometry relative="1" as="geometry">
            <mxPoint x="254.70000000000005" y="338.67999999999984" as="targetPoint" />
            <Array as="points">
              <mxPoint x="650" y="270" />
              <mxPoint x="255" y="270" />
            </Array>
          </mxGeometry>
        </mxCell>
        <mxCell id="ycUvaEFtshFAvuI_ldmJ-1" value="&lt;font style=&quot;font-size: 19px&quot;&gt;server&lt;/font&gt;" style="shape=cube;whiteSpace=wrap;html=1;boundedLbl=1;backgroundOutline=1;darkOpacity=0.05;darkOpacity2=0.1;" vertex="1" parent="1">
          <mxGeometry x="610" y="320" width="150" height="100" as="geometry" />
        </mxCell>
        <mxCell id="ycUvaEFtshFAvuI_ldmJ-2" value="&lt;font style=&quot;font-size: 28px&quot;&gt;DB&lt;/font&gt;" style="shape=cylinder3;whiteSpace=wrap;html=1;boundedLbl=1;backgroundOutline=1;size=15;" vertex="1" parent="1">
          <mxGeometry x="632.5" y="40" width="105" height="130" as="geometry" />
        </mxCell>
        <mxCell id="ycUvaEFtshFAvuI_ldmJ-5" style="edgeStyle=orthogonalEdgeStyle;rounded=0;orthogonalLoop=1;jettySize=auto;html=1;entryX=1;entryY=0.75;entryDx=0;entryDy=0;" edge="1" parent="1" source="ycUvaEFtshFAvuI_ldmJ-3" target="ycUvaEFtshFAvuI_ldmJ-7">
          <mxGeometry relative="1" as="geometry">
            <mxPoint x="400" y="759.9999999999998" as="targetPoint" />
          </mxGeometry>
        </mxCell>
        <mxCell id="ycUvaEFtshFAvuI_ldmJ-3" value="Login Page" style="rounded=0;whiteSpace=wrap;html=1;fontSize=16;" vertex="1" parent="1">
          <mxGeometry x="640" y="530" width="170" height="240" as="geometry" />
        </mxCell>
        <mxCell id="ycUvaEFtshFAvuI_ldmJ-9" style="edgeStyle=orthogonalEdgeStyle;rounded=0;orthogonalLoop=1;jettySize=auto;html=1;" edge="1" parent="1" target="ycUvaEFtshFAvuI_ldmJ-1">
          <mxGeometry relative="1" as="geometry">
            <mxPoint x="360" y="370" as="sourcePoint" />
            <Array as="points">
              <mxPoint x="580" y="370" />
              <mxPoint x="580" y="370" />
            </Array>
          </mxGeometry>
        </mxCell>
        <mxCell id="ycUvaEFtshFAvuI_ldmJ-19" style="edgeStyle=orthogonalEdgeStyle;rounded=0;orthogonalLoop=1;jettySize=auto;html=1;entryX=0.006;entryY=0.621;entryDx=0;entryDy=0;entryPerimeter=0;fontSize=12;fontColor=#000000;" edge="1" parent="1" source="ycUvaEFtshFAvuI_ldmJ-4" target="ycUvaEFtshFAvuI_ldmJ-7">
          <mxGeometry relative="1" as="geometry">
            <Array as="points">
              <mxPoint x="190" y="470" />
              <mxPoint x="200" y="470" />
              <mxPoint x="200" y="667" />
            </Array>
          </mxGeometry>
        </mxCell>
        <mxCell id="ycUvaEFtshFAvuI_ldmJ-4" value="action&lt;br&gt;user_login(manager_id)" style="rounded=1;whiteSpace=wrap;html=1;" vertex="1" parent="1">
          <mxGeometry x="180" y="340" width="180" height="60" as="geometry" />
        </mxCell>
        <mxCell id="ycUvaEFtshFAvuI_ldmJ-8" style="edgeStyle=orthogonalEdgeStyle;rounded=0;orthogonalLoop=1;jettySize=auto;html=1;" edge="1" parent="1" source="ycUvaEFtshFAvuI_ldmJ-7">
          <mxGeometry relative="1" as="geometry">
            <mxPoint x="270" y="400" as="targetPoint" />
          </mxGeometry>
        </mxCell>
        <mxCell id="ycUvaEFtshFAvuI_ldmJ-21" style="edgeStyle=orthogonalEdgeStyle;rounded=0;orthogonalLoop=1;jettySize=auto;html=1;fontSize=12;fontColor=#000000;" edge="1" parent="1" source="ycUvaEFtshFAvuI_ldmJ-7">
          <mxGeometry relative="1" as="geometry">
            <mxPoint x="250" y="880" as="targetPoint" />
            <Array as="points">
              <mxPoint x="365" y="795" />
              <mxPoint x="250" y="795" />
              <mxPoint x="250" y="840" />
            </Array>
          </mxGeometry>
        </mxCell>
        <mxCell id="ycUvaEFtshFAvuI_ldmJ-22" style="edgeStyle=orthogonalEdgeStyle;rounded=0;orthogonalLoop=1;jettySize=auto;html=1;fontSize=12;fontColor=#000000;" edge="1" parent="1" source="ycUvaEFtshFAvuI_ldmJ-7">
          <mxGeometry relative="1" as="geometry">
            <mxPoint x="640" y="750" as="targetPoint" />
            <Array as="points">
              <mxPoint x="365" y="800" />
              <mxPoint x="520" y="800" />
            </Array>
          </mxGeometry>
        </mxCell>
        <mxCell id="ycUvaEFtshFAvuI_ldmJ-7" value="&lt;font style=&quot;font-size: 17px&quot;&gt;startLogin()&lt;br&gt;if message is success&lt;br&gt;loginwithemailandpassword&lt;br&gt;&lt;br&gt;&lt;br&gt;&lt;/font&gt;" style="rounded=0;whiteSpace=wrap;html=1;align=center;fontSize=17;" vertex="1" parent="1">
          <mxGeometry x="250" y="530" width="230" height="220" as="geometry" />
        </mxCell>
        <mxCell id="ycUvaEFtshFAvuI_ldmJ-11" value="" style="endArrow=classic;startArrow=classic;html=1;entryX=0.5;entryY=1;entryDx=0;entryDy=0;entryPerimeter=0;" edge="1" parent="1" source="ycUvaEFtshFAvuI_ldmJ-1" target="ycUvaEFtshFAvuI_ldmJ-2">
          <mxGeometry width="50" height="50" relative="1" as="geometry">
            <mxPoint x="680" y="240" as="sourcePoint" />
            <mxPoint x="730" y="190" as="targetPoint" />
          </mxGeometry>
        </mxCell>
        <mxCell id="ycUvaEFtshFAvuI_ldmJ-12" value="/authhandler/login&amp;nbsp;" style="text;html=1;strokeColor=none;fillColor=none;align=left;verticalAlign=middle;whiteSpace=wrap;rounded=0;fontSize=20;" vertex="1" parent="1">
          <mxGeometry x="390" y="380" width="40" height="20" as="geometry" />
        </mxCell>
        <mxCell id="ycUvaEFtshFAvuI_ldmJ-14" value="username: &quot;MANAGER_ID" style="rounded=0;whiteSpace=wrap;html=1;fontSize=12;align=center;" vertex="1" parent="1">
          <mxGeometry x="380" y="330" width="170" height="40" as="geometry" />
        </mxCell>
        <mxCell id="ycUvaEFtshFAvuI_ldmJ-16" value="&lt;span id=&quot;docs-internal-guid-f06b499e-7fff-c59e-ef22-961e910fe1fb&quot;&gt;&lt;span style=&quot;font-size: 11pt; font-family: consolas, sans-serif; vertical-align: baseline;&quot;&gt;&amp;nbsp;message: &lt;/span&gt;&lt;span style=&quot;font-size: 11pt; font-family: consolas, sans-serif; vertical-align: baseline;&quot;&gt;&quot;success&quot;&lt;/span&gt;&lt;span style=&quot;font-size: 11pt; font-family: consolas, sans-serif; vertical-align: baseline;&quot;&gt;&lt;br&gt;&lt;/span&gt;&lt;span style=&quot;font-size: 11pt; font-family: consolas, sans-serif; vertical-align: baseline;&quot;&gt;&amp;nbsp; email: &lt;/span&gt;&lt;span style=&quot;font-size: 11pt; font-family: consolas, sans-serif; vertical-align: baseline;&quot;&gt;&quot;abcxyz@gmail.com&quot;&lt;/span&gt;&lt;span style=&quot;font-size: 11pt; font-family: consolas, sans-serif; vertical-align: baseline;&quot;&gt;,&lt;/span&gt;&lt;span style=&quot;font-size: 11pt; font-family: consolas, sans-serif; vertical-align: baseline;&quot;&gt;&lt;br&gt;&lt;/span&gt;&lt;span style=&quot;font-size: 11pt; font-family: consolas, sans-serif; vertical-align: baseline;&quot;&gt;&amp;nbsp; first_login: &lt;/span&gt;&lt;span style=&quot;font-size: 11pt; font-family: consolas, sans-serif; vertical-align: baseline;&quot;&gt;false&lt;/span&gt;&lt;span style=&quot;font-size: 11pt; font-family: consolas, sans-serif; vertical-align: baseline;&quot;&gt;, // &lt;/span&gt;&lt;span style=&quot;font-size: 11pt; font-family: consolas, sans-serif; vertical-align: baseline;&quot;&gt;&lt;br&gt;&lt;/span&gt;&lt;span style=&quot;font-size: 11pt; font-family: consolas, sans-serif; vertical-align: baseline;&quot;&gt;&amp;nbsp; location: &lt;/span&gt;&lt;span style=&quot;font-size: 11pt; font-family: consolas, sans-serif; vertical-align: baseline;&quot;&gt;&quot;Ecopulse Kurseong&quot;&lt;/span&gt;&lt;span style=&quot;font-size: 11pt; font-family: consolas, sans-serif; vertical-align: baseline;&quot;&gt;,&lt;/span&gt;&lt;span style=&quot;font-size: 11pt; font-family: consolas, sans-serif; vertical-align: baseline;&quot;&gt;&lt;br&gt;&lt;/span&gt;&lt;span style=&quot;font-size: 11pt; font-family: consolas, sans-serif; vertical-align: baseline;&quot;&gt;&amp;nbsp; manager_id: &lt;/span&gt;&lt;span style=&quot;font-size: 11pt; font-family: consolas, sans-serif; vertical-align: baseline;&quot;&gt;&quot;ECO00100A&quot;&lt;/span&gt;&lt;span style=&quot;font-size: 11pt; font-family: consolas, sans-serif; vertical-align: baseline;&quot;&gt;,&lt;/span&gt;&lt;span style=&quot;font-size: 11pt; font-family: consolas, sans-serif; vertical-align: baseline;&quot;&gt;&lt;br&gt;&lt;/span&gt;&lt;span style=&quot;font-size: 11pt; font-family: consolas, sans-serif; vertical-align: baseline;&quot;&gt;&amp;nbsp; name: &lt;/span&gt;&lt;span style=&quot;font-size: 11pt; font-family: consolas, sans-serif; vertical-align: baseline;&quot;&gt;&quot;Rishi&quot;&lt;/span&gt;&lt;span style=&quot;font-size: 11pt; font-family: consolas, sans-serif; vertical-align: baseline;&quot;&gt;,&lt;/span&gt;&lt;span style=&quot;font-size: 11pt; font-family: consolas, sans-serif; vertical-align: baseline;&quot;&gt;&lt;br&gt;&lt;/span&gt;&lt;span style=&quot;font-size: 11pt; font-family: consolas, sans-serif; vertical-align: baseline;&quot;&gt;&amp;nbsp; uid: &lt;/span&gt;&lt;span style=&quot;font-size: 11pt; font-family: consolas, sans-serif; vertical-align: baseline;&quot;&gt;&quot;I8dKKij1gkVUoiwwyJNkzaJBVPh2&quot;&lt;/span&gt;&lt;span style=&quot;font-size: 11pt; font-family: consolas, sans-serif; vertical-align: baseline;&quot;&gt;,&lt;/span&gt;&lt;span style=&quot;font-size: 11pt; font-family: consolas, sans-serif; vertical-align: baseline;&quot;&gt;&lt;br&gt;&lt;/span&gt;&lt;span style=&quot;font-size: 11pt; font-family: consolas, sans-serif; vertical-align: baseline;&quot;&gt;&amp;nbsp; optional: &lt;/span&gt;&lt;span style=&quot;font-size: 11pt; font-family: consolas, sans-serif; vertical-align: baseline;&quot;&gt;&quot;new_manager&quot;&lt;/span&gt;&lt;span style=&quot;font-size: 11pt; font-family: consolas, sans-serif; vertical-align: baseline;&quot;&gt; // if first_login is &lt;/span&gt;&lt;span style=&quot;font-size: 11pt; font-family: consolas, sans-serif; vertical-align: baseline;&quot;&gt;true&lt;/span&gt;&lt;span style=&quot;font-size: 11pt; font-family: consolas, sans-serif; vertical-align: baseline;&quot;&gt;&lt;br&gt;&lt;/span&gt;&lt;/span&gt;" style="rounded=0;whiteSpace=wrap;html=1;fontSize=12;align=left;labelBackgroundColor=none;" vertex="1" parent="1">
          <mxGeometry x="260" y="120" width="360" height="150" as="geometry" />
        </mxCell>
        <mxCell id="ycUvaEFtshFAvuI_ldmJ-18" value="data from server" style="rounded=0;whiteSpace=wrap;html=1;labelBackgroundColor=none;fontSize=12;fontColor=#000000;align=center;" vertex="1" parent="1">
          <mxGeometry x="80" y="510" width="120" height="60" as="geometry" />
        </mxCell>
        <mxCell id="ycUvaEFtshFAvuI_ldmJ-23" value="Login" style="text;html=1;strokeColor=none;fillColor=none;align=center;verticalAlign=middle;whiteSpace=wrap;rounded=0;labelBackgroundColor=none;fontSize=15;fontColor=#000000;" vertex="1" parent="1">
          <mxGeometry x="370" y="760" width="40" height="20" as="geometry" />
        </mxCell>
        <mxCell id="ycUvaEFtshFAvuI_ldmJ-24" value="success" style="text;html=1;strokeColor=none;fillColor=none;align=center;verticalAlign=middle;whiteSpace=wrap;rounded=0;labelBackgroundColor=none;fontSize=15;fontColor=#000000;" vertex="1" parent="1">
          <mxGeometry x="260" y="820" width="40" height="20" as="geometry" />
        </mxCell>
        <mxCell id="ycUvaEFtshFAvuI_ldmJ-25" value="failed" style="text;html=1;strokeColor=none;fillColor=none;align=center;verticalAlign=middle;whiteSpace=wrap;rounded=0;labelBackgroundColor=none;fontSize=16;fontColor=#000000;" vertex="1" parent="1">
          <mxGeometry x="550" y="750" width="40" height="20" as="geometry" />
        </mxCell>
        <mxCell id="ycUvaEFtshFAvuI_ldmJ-26" value="" style="endArrow=classic;html=1;fontSize=12;fontColor=#000000;" edge="1" parent="1">
          <mxGeometry width="50" height="50" relative="1" as="geometry">
            <mxPoint x="250" y="880" as="sourcePoint" />
            <mxPoint x="160" y="930" as="targetPoint" />
          </mxGeometry>
        </mxCell>
        <mxCell id="ycUvaEFtshFAvuI_ldmJ-27" value="" style="endArrow=classic;html=1;fontSize=12;fontColor=#000000;entryX=0.397;entryY=0.011;entryDx=0;entryDy=0;entryPerimeter=0;" edge="1" parent="1" target="ycUvaEFtshFAvuI_ldmJ-30">
          <mxGeometry width="50" height="50" relative="1" as="geometry">
            <mxPoint x="250" y="880" as="sourcePoint" />
            <mxPoint x="330" y="910" as="targetPoint" />
          </mxGeometry>
        </mxCell>
        <mxCell id="ycUvaEFtshFAvuI_ldmJ-28" value="new manager" style="text;html=1;strokeColor=none;fillColor=none;align=center;verticalAlign=middle;whiteSpace=wrap;rounded=0;labelBackgroundColor=none;fontSize=15;fontColor=#000000;" vertex="1" parent="1">
          <mxGeometry x="160" y="880" width="40" height="20" as="geometry" />
        </mxCell>
        <mxCell id="ycUvaEFtshFAvuI_ldmJ-29" value="login/newpass&lt;br&gt;Change Password Page" style="rounded=0;whiteSpace=wrap;html=1;labelBackgroundColor=none;fontSize=12;fontColor=#000000;align=center;" vertex="1" parent="1">
          <mxGeometry x="61" y="930" width="140" height="60" as="geometry" />
        </mxCell>
        <mxCell id="ycUvaEFtshFAvuI_ldmJ-30" value="dashboard" style="rounded=0;whiteSpace=wrap;html=1;labelBackgroundColor=none;fontSize=12;fontColor=#000000;align=center;" vertex="1" parent="1">
          <mxGeometry x="305" y="930" width="120" height="60" as="geometry" />
        </mxCell>
        <mxCell id="ycUvaEFtshFAvuI_ldmJ-32" value="show failer message" style="text;html=1;strokeColor=none;fillColor=none;align=center;verticalAlign=middle;whiteSpace=wrap;rounded=0;labelBackgroundColor=none;fontSize=14;fontColor=#000000;" vertex="1" parent="1">
          <mxGeometry x="550" y="800" width="40" height="20" as="geometry" />
        </mxCell>
      </root>
    </mxGraphModel>
  </diagram>
</mxfile>
